<mxfile host="Electron" agent="Mozilla/5.0 (Windows NT 10.0; Win64; x64) AppleWebKit/537.36 (KHTML, like Gecko) draw.io/26.0.16 Chrome/132.0.6834.196 Electron/34.2.0 Safari/537.36" version="26.0.16">
  <diagram name="페이지-1" id="jUn-iXYDyzqbW3ZydT3n">
    <mxGraphModel dx="792" dy="1180" grid="1" gridSize="10" guides="1" tooltips="1" connect="1" arrows="1" fold="1" page="1" pageScale="1" pageWidth="1169" pageHeight="827" math="0" shadow="0">
      <root>
        <mxCell id="0" />
        <mxCell id="1" parent="0" />
        <mxCell id="xADZoPn1s-DA-F3MPZCK-10" style="edgeStyle=orthogonalEdgeStyle;rounded=0;orthogonalLoop=1;jettySize=auto;html=1;entryX=0.5;entryY=0;entryDx=0;entryDy=0;" edge="1" parent="1" source="xADZoPn1s-DA-F3MPZCK-2" target="xADZoPn1s-DA-F3MPZCK-6">
          <mxGeometry relative="1" as="geometry" />
        </mxCell>
        <mxCell id="xADZoPn1s-DA-F3MPZCK-19" style="edgeStyle=orthogonalEdgeStyle;rounded=0;orthogonalLoop=1;jettySize=auto;html=1;entryX=0;entryY=0.5;entryDx=0;entryDy=0;endArrow=none;startFill=0;" edge="1" parent="1" source="xADZoPn1s-DA-F3MPZCK-2" target="xADZoPn1s-DA-F3MPZCK-12">
          <mxGeometry relative="1" as="geometry">
            <Array as="points">
              <mxPoint x="370" y="395" />
              <mxPoint x="370" y="280" />
            </Array>
          </mxGeometry>
        </mxCell>
        <mxCell id="xADZoPn1s-DA-F3MPZCK-28" style="edgeStyle=orthogonalEdgeStyle;rounded=0;orthogonalLoop=1;jettySize=auto;html=1;entryX=0;entryY=0.5;entryDx=0;entryDy=0;" edge="1" parent="1" source="xADZoPn1s-DA-F3MPZCK-2" target="xADZoPn1s-DA-F3MPZCK-26">
          <mxGeometry relative="1" as="geometry">
            <Array as="points">
              <mxPoint x="370" y="395" />
              <mxPoint x="370" y="590" />
            </Array>
          </mxGeometry>
        </mxCell>
        <mxCell id="xADZoPn1s-DA-F3MPZCK-36" style="edgeStyle=orthogonalEdgeStyle;rounded=0;orthogonalLoop=1;jettySize=auto;html=1;exitX=0.25;exitY=1;exitDx=0;exitDy=0;exitPerimeter=0;entryX=0.25;entryY=0;entryDx=0;entryDy=0;" edge="1" parent="1" source="xADZoPn1s-DA-F3MPZCK-2" target="xADZoPn1s-DA-F3MPZCK-34">
          <mxGeometry relative="1" as="geometry" />
        </mxCell>
        <mxCell id="xADZoPn1s-DA-F3MPZCK-37" style="edgeStyle=orthogonalEdgeStyle;rounded=0;orthogonalLoop=1;jettySize=auto;html=1;exitX=0.75;exitY=0;exitDx=0;exitDy=0;entryX=0.75;entryY=1;entryDx=0;entryDy=0;entryPerimeter=0;" edge="1" parent="1" source="xADZoPn1s-DA-F3MPZCK-34" target="xADZoPn1s-DA-F3MPZCK-2">
          <mxGeometry relative="1" as="geometry" />
        </mxCell>
        <mxCell id="xADZoPn1s-DA-F3MPZCK-45" value="" style="edgeStyle=orthogonalEdgeStyle;rounded=0;orthogonalLoop=1;jettySize=auto;html=1;" edge="1" parent="1" source="xADZoPn1s-DA-F3MPZCK-2" target="xADZoPn1s-DA-F3MPZCK-44">
          <mxGeometry relative="1" as="geometry" />
        </mxCell>
        <mxCell id="xADZoPn1s-DA-F3MPZCK-2" value="스마트팜&lt;div&gt;모니터링&lt;/div&gt;&lt;div&gt;인터페이스&lt;/div&gt;" style="rounded=0;whiteSpace=wrap;html=1;fillColor=#e1d5e7;strokeColor=#9673a6;points=[[0,0,0,0,0],[0,0.25,0,0,0],[0,0.5,0,0,0],[0,0.75,0,0,0],[0,1,0,0,0],[0.25,0,0,0,0],[0.25,1,0,0,0],[0.5,0,0,0,0],[0.5,1,0,0,0],[0.75,0,0,0,0],[0.75,1,0,0,0],[1,0,0,0,0],[1,0.25,0,0,0],[1,0.5,0,0,0],[1,0.75,0,0,0],[1,1,0,0,0]];" vertex="1" parent="1">
          <mxGeometry x="200" y="310" width="90" height="170" as="geometry" />
        </mxCell>
        <mxCell id="xADZoPn1s-DA-F3MPZCK-21" style="edgeStyle=orthogonalEdgeStyle;rounded=0;orthogonalLoop=1;jettySize=auto;html=1;endArrow=none;endFill=0;startFill=0;entryX=1.191;entryY=0.501;entryDx=0;entryDy=0;entryPerimeter=0;" edge="1" parent="1" source="xADZoPn1s-DA-F3MPZCK-12" target="xADZoPn1s-DA-F3MPZCK-31">
          <mxGeometry relative="1" as="geometry">
            <mxPoint x="575" y="280" as="targetPoint" />
          </mxGeometry>
        </mxCell>
        <mxCell id="xADZoPn1s-DA-F3MPZCK-27" value="" style="group" vertex="1" connectable="0" parent="1">
          <mxGeometry x="440" y="550" width="80" height="80" as="geometry" />
        </mxCell>
        <mxCell id="xADZoPn1s-DA-F3MPZCK-26" value="" style="shape=tapeData;whiteSpace=wrap;html=1;perimeter=ellipsePerimeter;fillColor=#d5e8d4;strokeColor=#82b366;" vertex="1" parent="xADZoPn1s-DA-F3MPZCK-27">
          <mxGeometry width="80" height="80" as="geometry" />
        </mxCell>
        <mxCell id="xADZoPn1s-DA-F3MPZCK-23" value="" style="verticalLabelPosition=bottom;verticalAlign=top;html=1;shape=mxgraph.basic.drop;fillColor=#dae8fc;strokeColor=#6c8ebf;" vertex="1" parent="xADZoPn1s-DA-F3MPZCK-27">
          <mxGeometry x="23" y="40" width="14" height="20" as="geometry" />
        </mxCell>
        <mxCell id="xADZoPn1s-DA-F3MPZCK-24" value="" style="verticalLabelPosition=bottom;verticalAlign=top;html=1;shape=mxgraph.basic.drop;fillColor=#dae8fc;strokeColor=#6c8ebf;" vertex="1" parent="xADZoPn1s-DA-F3MPZCK-27">
          <mxGeometry x="43" y="40" width="14" height="20" as="geometry" />
        </mxCell>
        <mxCell id="xADZoPn1s-DA-F3MPZCK-25" value="" style="verticalLabelPosition=bottom;verticalAlign=top;html=1;shape=mxgraph.basic.drop;fillColor=#dae8fc;strokeColor=#6c8ebf;" vertex="1" parent="xADZoPn1s-DA-F3MPZCK-27">
          <mxGeometry x="33" y="20" width="14" height="20" as="geometry" />
        </mxCell>
        <mxCell id="xADZoPn1s-DA-F3MPZCK-29" value="" style="group" vertex="1" connectable="0" parent="1">
          <mxGeometry x="420" y="440" width="120" height="80" as="geometry" />
        </mxCell>
        <mxCell id="xADZoPn1s-DA-F3MPZCK-3" value="" style="triangle;whiteSpace=wrap;html=1;fillColor=#f5f5f5;fontColor=#333333;strokeColor=#666666;" vertex="1" parent="xADZoPn1s-DA-F3MPZCK-29">
          <mxGeometry x="20" y="26.666666666666664" width="40" height="53.33333333333333" as="geometry" />
        </mxCell>
        <mxCell id="xADZoPn1s-DA-F3MPZCK-4" value="" style="triangle;whiteSpace=wrap;html=1;rotation=-180;fillColor=#f5f5f5;fontColor=#333333;strokeColor=#666666;" vertex="1" parent="xADZoPn1s-DA-F3MPZCK-29">
          <mxGeometry x="60" y="26.666666666666664" width="40" height="53.33333333333333" as="geometry" />
        </mxCell>
        <mxCell id="xADZoPn1s-DA-F3MPZCK-5" value="" style="endArrow=none;html=1;rounded=0;exitX=1;exitY=0.5;exitDx=0;exitDy=0;" edge="1" parent="xADZoPn1s-DA-F3MPZCK-29" source="xADZoPn1s-DA-F3MPZCK-4">
          <mxGeometry width="50" height="50" relative="1" as="geometry">
            <mxPoint x="20" y="73.33333333333333" as="sourcePoint" />
            <mxPoint x="60" y="26.666666666666664" as="targetPoint" />
          </mxGeometry>
        </mxCell>
        <mxCell id="xADZoPn1s-DA-F3MPZCK-6" value="M" style="ellipse;whiteSpace=wrap;html=1;aspect=fixed;fontSize=26;fillColor=#f5f5f5;fontColor=#333333;strokeColor=#666666;" vertex="1" parent="xADZoPn1s-DA-F3MPZCK-29">
          <mxGeometry x="46.666666666666664" width="26.666666666666664" height="26.666666666666664" as="geometry" />
        </mxCell>
        <mxCell id="xADZoPn1s-DA-F3MPZCK-7" value="" style="endArrow=none;html=1;rounded=0;" edge="1" parent="xADZoPn1s-DA-F3MPZCK-29">
          <mxGeometry width="50" height="50" relative="1" as="geometry">
            <mxPoint y="53.33333333333333" as="sourcePoint" />
            <mxPoint x="20" y="53.33333333333333" as="targetPoint" />
          </mxGeometry>
        </mxCell>
        <mxCell id="xADZoPn1s-DA-F3MPZCK-9" value="" style="endArrow=none;html=1;rounded=0;" edge="1" parent="xADZoPn1s-DA-F3MPZCK-29">
          <mxGeometry width="50" height="50" relative="1" as="geometry">
            <mxPoint x="100" y="53.33333333333333" as="sourcePoint" />
            <mxPoint x="120" y="53.33333333333333" as="targetPoint" />
          </mxGeometry>
        </mxCell>
        <mxCell id="xADZoPn1s-DA-F3MPZCK-31" value="" style="triangle;whiteSpace=wrap;html=1;rotation=-180;fillColor=#000000;" vertex="1" parent="1">
          <mxGeometry x="520" y="260" width="10" height="39.99" as="geometry" />
        </mxCell>
        <mxCell id="xADZoPn1s-DA-F3MPZCK-12" value="" style="triangle;whiteSpace=wrap;html=1;fillColor=#f8cecc;strokeColor=#b85450;" vertex="1" parent="1">
          <mxGeometry x="465" y="250" width="30" height="60" as="geometry" />
        </mxCell>
        <mxCell id="xADZoPn1s-DA-F3MPZCK-15" value="" style="endArrow=classic;html=1;rounded=0;strokeWidth=2;fillColor=#fff2cc;strokeColor=#d6b656;" edge="1" parent="1">
          <mxGeometry width="50" height="50" relative="1" as="geometry">
            <mxPoint x="475" y="242.5" as="sourcePoint" />
            <mxPoint x="480" y="220" as="targetPoint" />
          </mxGeometry>
        </mxCell>
        <mxCell id="xADZoPn1s-DA-F3MPZCK-16" value="" style="endArrow=none;html=1;rounded=0;" edge="1" parent="1">
          <mxGeometry width="50" height="50" relative="1" as="geometry">
            <mxPoint x="495" y="310" as="sourcePoint" />
            <mxPoint x="495" y="250" as="targetPoint" />
          </mxGeometry>
        </mxCell>
        <mxCell id="xADZoPn1s-DA-F3MPZCK-18" value="" style="endArrow=classic;html=1;rounded=0;strokeWidth=2;fillColor=#fff2cc;strokeColor=#d6b656;" edge="1" parent="1">
          <mxGeometry width="50" height="50" relative="1" as="geometry">
            <mxPoint x="485" y="242.5" as="sourcePoint" />
            <mxPoint x="490" y="220" as="targetPoint" />
          </mxGeometry>
        </mxCell>
        <mxCell id="xADZoPn1s-DA-F3MPZCK-34" value="" style="rounded=0;whiteSpace=wrap;html=1;fillColor=#f5f5f5;fontColor=#333333;strokeColor=#666666;" vertex="1" parent="1">
          <mxGeometry x="180" y="510" width="140" height="100" as="geometry" />
        </mxCell>
        <mxCell id="xADZoPn1s-DA-F3MPZCK-35" value="PC" style="rounded=0;whiteSpace=wrap;html=1;fillColor=#0050ef;fontColor=#ffffff;strokeColor=#001DBC;" vertex="1" parent="1">
          <mxGeometry x="190" y="520" width="120" height="80" as="geometry" />
        </mxCell>
        <mxCell id="xADZoPn1s-DA-F3MPZCK-38" value="sensor1" style="rounded=0;whiteSpace=wrap;html=1;fillColor=#fff2cc;strokeColor=#d6b656;" vertex="1" parent="1">
          <mxGeometry x="60" y="310" width="120" height="60" as="geometry" />
        </mxCell>
        <mxCell id="xADZoPn1s-DA-F3MPZCK-39" value="sensor2" style="rounded=0;whiteSpace=wrap;html=1;fillColor=#fff2cc;strokeColor=#d6b656;" vertex="1" parent="1">
          <mxGeometry x="60" y="384" width="120" height="60" as="geometry" />
        </mxCell>
        <mxCell id="xADZoPn1s-DA-F3MPZCK-41" style="edgeStyle=orthogonalEdgeStyle;rounded=0;orthogonalLoop=1;jettySize=auto;html=1;entryX=-0.004;entryY=0.176;entryDx=0;entryDy=0;entryPerimeter=0;" edge="1" parent="1" source="xADZoPn1s-DA-F3MPZCK-38" target="xADZoPn1s-DA-F3MPZCK-2">
          <mxGeometry relative="1" as="geometry" />
        </mxCell>
        <mxCell id="xADZoPn1s-DA-F3MPZCK-42" style="edgeStyle=orthogonalEdgeStyle;rounded=0;orthogonalLoop=1;jettySize=auto;html=1;entryX=0.007;entryY=0.61;entryDx=0;entryDy=0;entryPerimeter=0;" edge="1" parent="1" source="xADZoPn1s-DA-F3MPZCK-39" target="xADZoPn1s-DA-F3MPZCK-2">
          <mxGeometry relative="1" as="geometry" />
        </mxCell>
        <mxCell id="xADZoPn1s-DA-F3MPZCK-44" value="FND" style="rounded=0;whiteSpace=wrap;html=1;fillColor=#ffe6cc;strokeColor=#d79b00;" vertex="1" parent="1">
          <mxGeometry x="185" y="230" width="120" height="60" as="geometry" />
        </mxCell>
      </root>
    </mxGraphModel>
  </diagram>
</mxfile>
